<svg width="512" height="512" viewBox="0 0 512 512" fill="none" xmlns="http://www.w3.org/2000/svg">
  <rect width="512" height="512" rx="100" fill="#3B82F6"/>
  <path d="M256 116C179.532 116 117 178.532 117 255C117 331.468 179.532 394 256 394C332.468 394 395 331.468 395 255C395 178.532 332.468 116 256 116ZM256 360.714C198.09 360.714 151.286 313.91 151.286 256C151.286 198.09 198.09 151.286 256 151.286C313.91 151.286 360.714 198.09 360.714 256C360.714 313.91 313.91 360.714 256 360.714Z" fill="white"/>
  <path d="M256 190.643C220.022 190.643 190.643 220.022 190.643 256C190.643 291.978 220.022 321.357 256 321.357C291.978 321.357 321.357 291.978 321.357 256C321.357 220.022 291.978 190.643 256 190.643ZM256 294.214C234.88 294.214 217.786 277.12 217.786 256C217.786 234.88 234.88 217.786 256 217.786C277.12 217.786 294.214 234.88 294.214 256C294.214 277.12 277.12 294.214 256 294.214Z" fill="white"/>
  <path d="M256 243.857C250.033 243.857 245.214 248.676 245.214 254.643C245.214 260.61 250.033 265.429 256 265.429C261.967 265.429 266.786 260.61 266.786 254.643C266.786 248.676 261.967 243.857 256 243.857Z" fill="white"/>
</svg> 